<?xml version="1.0" encoding="UTF-8" standalone="no"?>
<!DOCTYPE svg PUBLIC "-//W3C//DTD SVG 1.1//EN" "http://www.w3.org/Graphics/SVG/1.1/DTD/svg11.dtd">
<svg width="100%" height="100%" viewBox="0 0 2363 2363" version="1.1" xmlns="http://www.w3.org/2000/svg" xmlns:xlink="http://www.w3.org/1999/xlink" xml:space="preserve" xmlns:serif="http://www.serif.com/" style="fill-rule:evenodd;clip-rule:evenodd;stroke-linecap:round;stroke-linejoin:round;stroke-miterlimit:1.5;">
    <rect x="0" y="0" width="2362.205" height="2362.205" style="fill:rgb(68,31,170);"/>
    <g transform="matrix(1,0,0,1,357.25,-442)">
        <g transform="matrix(1,0,0,1,-304,-31)">
            <circle cx="2161.5" cy="710.5" r="112.5" style="fill:white;stroke:black;stroke-width:31.25px;"/>
        </g>
        <g transform="matrix(0.5,0,0,0.5,776.75,324.25)">
            <path d="M2274,710.5C2274,772.59 2223.59,823 2161.5,823" style="fill:white;stroke:black;stroke-width:62.5px;"/>
        </g>
    </g>
    <g transform="matrix(1,0,0,1,-474.75,140.625)">
        <g transform="matrix(1,0,0,1,-304,-31)">
            <circle cx="2161.5" cy="710.5" r="112.5" style="fill:white;stroke:black;stroke-width:31.25px;"/>
        </g>
        <g transform="matrix(0.5,0,0,0.5,776.75,324.25)">
            <path d="M2274,710.5C2274,772.59 2223.59,823 2161.5,823" style="fill:white;stroke:black;stroke-width:62.5px;"/>
        </g>
    </g>
    <g transform="matrix(1,0,0,1,-1090.75,-2.375)">
        <g transform="matrix(1,0,0,1,-304,-31)">
            <circle cx="2161.5" cy="710.5" r="112.5" style="fill:white;stroke:black;stroke-width:31.25px;"/>
        </g>
        <g transform="matrix(0.5,0,0,0.5,776.75,324.25)">
            <path d="M2274,710.5C2274,772.59 2223.59,823 2161.5,823" style="fill:white;stroke:black;stroke-width:62.5px;"/>
        </g>
    </g>
    <g transform="matrix(1,0,0,1,-611.75,636.625)">
        <g transform="matrix(1,0,0,1,-304,-31)">
            <circle cx="2161.5" cy="710.5" r="112.5" style="fill:white;stroke:black;stroke-width:31.25px;"/>
        </g>
        <g transform="matrix(0.5,0,0,0.5,776.75,324.25)">
            <path d="M2274,710.5C2274,772.59 2223.59,823 2161.5,823" style="fill:white;stroke:black;stroke-width:62.5px;"/>
        </g>
    </g>
    <g transform="matrix(1.857778,0,0,1.857778,-1403.572222,632.765)">
        <g transform="matrix(1,0,0,1,-304,-31)">
            <circle cx="2161.5" cy="710.5" r="112.5" style="fill:white;stroke:black;stroke-width:16.82px;"/>
        </g>
        <g transform="matrix(1,0,0,1,-304,-31)">
            <circle cx="2161.5" cy="710.5" r="112.5" style="fill:white;stroke:black;stroke-width:16.82px;"/>
        </g>
        <g transform="matrix(0.612303,0,0,0.612303,538.059825,244.458795)">
            <path d="M2274,710.5C2274,772.59 2223.59,823 2161.5,823" style="fill:white;stroke:black;stroke-width:27.47px;"/>
        </g>
        <g transform="matrix(-0.475527,0.385732,0.385732,0.475527,2614.459197,-492.110754)">
            <path d="M2274,710.5C2274,721.42 2272.441,731.978 2269.533,741.964" style="fill:white;stroke:black;stroke-width:27.47px;"/>
        </g>
    </g>
    <g transform="matrix(1.857778,0,0,1.857778,-2926.572222,-35.235)">
        <g transform="matrix(1,0,0,1,-304,-31)">
            <circle cx="2161.5" cy="710.5" r="112.5" style="fill:white;stroke:black;stroke-width:16.82px;"/>
        </g>
        <g transform="matrix(1,0,0,1,-304,-31)">
            <circle cx="2161.5" cy="710.5" r="112.5" style="fill:white;stroke:black;stroke-width:16.82px;"/>
        </g>
        <g transform="matrix(0.612303,0,0,0.612303,538.059825,244.458795)">
            <path d="M2274,710.5C2274,772.59 2223.59,823 2161.5,823" style="fill:white;stroke:black;stroke-width:27.47px;"/>
        </g>
        <g transform="matrix(-0.475527,0.385732,0.385732,0.475527,2614.459197,-492.110754)">
            <path d="M2274,710.5C2274,721.42 2272.441,731.978 2269.533,741.964" style="fill:white;stroke:black;stroke-width:27.47px;"/>
        </g>
    </g>
    <g transform="matrix(1.857778,0,0,1.857778,-2580.572222,860.844724)">
        <g transform="matrix(1,0,0,1,-304,-31)">
            <circle cx="2161.5" cy="710.5" r="112.5" style="fill:white;stroke:black;stroke-width:16.82px;"/>
        </g>
        <g transform="matrix(1,0,0,1,-304,-31)">
            <circle cx="2161.5" cy="710.5" r="112.5" style="fill:white;stroke:black;stroke-width:16.82px;"/>
        </g>
        <g transform="matrix(0.612303,0,0,0.612303,538.059825,244.458795)">
            <path d="M2274,710.5C2274,772.59 2223.59,823 2161.5,823" style="fill:white;stroke:black;stroke-width:27.47px;"/>
        </g>
        <g transform="matrix(-0.475527,0.385732,0.385732,0.475527,2614.459197,-492.110754)">
            <path d="M2274,710.5C2274,721.42 2272.441,731.978 2269.533,741.964" style="fill:white;stroke:black;stroke-width:27.47px;"/>
        </g>
    </g>
    <g transform="matrix(1.483788,0,0,1.483788,-1741.960542,-745.182953)">
        <g transform="matrix(1,0,0,1,-304,-31)">
            <circle cx="2161.5" cy="710.5" r="112.5" style="fill:white;stroke:black;stroke-width:21.06px;"/>
        </g>
        <g transform="matrix(1,0,0,1,-304,-31)">
            <circle cx="2161.5" cy="710.5" r="112.5" style="fill:white;stroke:black;stroke-width:21.06px;"/>
        </g>
        <g transform="matrix(0.612303,0,0,0.612303,538.059825,244.458795)">
            <path d="M2274,710.5C2274,772.59 2223.59,823 2161.5,823" style="fill:white;stroke:black;stroke-width:34.4px;"/>
        </g>
        <g transform="matrix(-0.475527,0.385732,0.385732,0.475527,2614.459197,-492.110754)">
            <path d="M2274,710.5C2274,721.42 2272.441,731.978 2269.533,741.964" style="fill:white;stroke:black;stroke-width:34.4px;"/>
        </g>
    </g>
    <g transform="matrix(1.483788,0,0,1.483788,-1037.960542,-374.182953)">
        <g transform="matrix(1,0,0,1,-304,-31)">
            <circle cx="2161.5" cy="710.5" r="112.5" style="fill:white;stroke:black;stroke-width:21.06px;"/>
        </g>
        <g transform="matrix(1,0,0,1,-304,-31)">
            <circle cx="2161.5" cy="710.5" r="112.5" style="fill:white;stroke:black;stroke-width:21.06px;"/>
        </g>
        <g transform="matrix(0.612303,0,0,0.612303,538.059825,244.458795)">
            <path d="M2274,710.5C2274,772.59 2223.59,823 2161.5,823" style="fill:white;stroke:black;stroke-width:34.4px;"/>
        </g>
        <g transform="matrix(-0.475527,0.385732,0.385732,0.475527,2614.459197,-492.110754)">
            <path d="M2274,710.5C2274,721.42 2272.441,731.978 2269.533,741.964" style="fill:white;stroke:black;stroke-width:34.4px;"/>
        </g>
    </g>
    <g transform="matrix(1,0,0,1,-253.75,1478.625)">
        <g transform="matrix(1,0,0,1,-304,-31)">
            <circle cx="2161.5" cy="710.5" r="112.5" style="fill:white;stroke:black;stroke-width:31.25px;"/>
        </g>
        <g transform="matrix(0.5,0,0,0.5,776.75,324.25)">
            <path d="M2274,710.5C2274,772.59 2223.59,823 2161.5,823" style="fill:white;stroke:black;stroke-width:62.5px;"/>
        </g>
    </g>
    <g transform="matrix(1,0,0,1,-1710.75,333.625)">
        <g transform="matrix(1,0,0,1,-304,-31)">
            <circle cx="2161.5" cy="710.5" r="112.5" style="fill:white;stroke:black;stroke-width:31.25px;"/>
        </g>
        <g transform="matrix(0.5,0,0,0.5,776.75,324.25)">
            <path d="M2274,710.5C2274,772.59 2223.59,823 2161.5,823" style="fill:white;stroke:black;stroke-width:62.5px;"/>
        </g>
    </g>
    <g transform="matrix(1,0,0,1,-1654.75,1027.125)">
        <g transform="matrix(1,0,0,1,-304,-31)">
            <circle cx="2161.5" cy="710.5" r="112.5" style="fill:white;stroke:black;stroke-width:31.25px;"/>
        </g>
        <g transform="matrix(0.5,0,0,0.5,776.75,324.25)">
            <path d="M2274,710.5C2274,772.59 2223.59,823 2161.5,823" style="fill:white;stroke:black;stroke-width:62.5px;"/>
        </g>
    </g>
    <g transform="matrix(1,0,0,1,-1429.75,1277.625)">
        <g transform="matrix(1,0,0,1,-304,-31)">
            <circle cx="2161.5" cy="710.5" r="112.5" style="fill:white;stroke:black;stroke-width:31.25px;"/>
        </g>
        <g transform="matrix(0.5,0,0,0.5,776.75,324.25)">
            <path d="M2274,710.5C2274,772.59 2223.59,823 2161.5,823" style="fill:white;stroke:black;stroke-width:62.5px;"/>
        </g>
    </g>
    <g transform="matrix(1.284444,0,0,1.284444,-1426.105556,721.345)">
        <g transform="matrix(1,0,0,1,-304,-31)">
            <circle cx="2161.5" cy="710.5" r="112.5" style="fill:white;stroke:black;stroke-width:24.33px;"/>
        </g>
        <g transform="matrix(0.5,0,0,0.5,776.75,324.25)">
            <path d="M2274,710.5C2274,772.59 2223.59,823 2161.5,823" style="fill:white;stroke:black;stroke-width:48.66px;"/>
        </g>
    </g>
    <g transform="matrix(1.284444,0,0,1.284444,-692.105556,772.345)">
        <g transform="matrix(1,0,0,1,-304,-31)">
            <circle cx="2161.5" cy="710.5" r="112.5" style="fill:white;stroke:black;stroke-width:24.33px;"/>
        </g>
        <g transform="matrix(0.5,0,0,0.5,776.75,324.25)">
            <path d="M2274,710.5C2274,772.59 2223.59,823 2161.5,823" style="fill:white;stroke:black;stroke-width:48.66px;"/>
        </g>
    </g>
    <g transform="matrix(0.488889,0,0,0.488889,821.06507,1656.425)">
        <g transform="matrix(1,0,0,1,-304,-31)">
            <circle cx="2161.5" cy="710.5" r="112.5" style="fill:white;stroke:black;stroke-width:63.92px;"/>
        </g>
        <g transform="matrix(0.5,0,0,0.5,776.75,324.25)">
            <path d="M2274,710.5C2274,772.59 2223.59,823 2161.5,823" style="fill:white;stroke:black;stroke-width:127.84px;"/>
        </g>
    </g>
    <g transform="matrix(0.488889,0,0,0.488889,1124.06507,842.902362)">
        <g transform="matrix(1,0,0,1,-304,-31)">
            <circle cx="2161.5" cy="710.5" r="112.5" style="fill:white;stroke:black;stroke-width:63.92px;"/>
        </g>
        <g transform="matrix(0.5,0,0,0.5,776.75,324.25)">
            <path d="M2274,710.5C2274,772.59 2223.59,823 2161.5,823" style="fill:white;stroke:black;stroke-width:127.84px;"/>
        </g>
    </g>
    <g transform="matrix(0.488889,0,0,0.488889,384.06507,1578.425)">
        <g transform="matrix(1,0,0,1,-304,-31)">
            <circle cx="2161.5" cy="710.5" r="112.5" style="fill:white;stroke:black;stroke-width:63.92px;"/>
        </g>
        <g transform="matrix(0.5,0,0,0.5,776.75,324.25)">
            <path d="M2274,710.5C2274,772.59 2223.59,823 2161.5,823" style="fill:white;stroke:black;stroke-width:127.84px;"/>
        </g>
    </g>
    <g transform="matrix(0.488889,0,0,0.488889,439.06507,1900.425)">
        <g transform="matrix(1,0,0,1,-304,-31)">
            <circle cx="2161.5" cy="710.5" r="112.5" style="fill:white;stroke:black;stroke-width:63.92px;"/>
        </g>
        <g transform="matrix(0.5,0,0,0.5,776.75,324.25)">
            <path d="M2274,710.5C2274,772.59 2223.59,823 2161.5,823" style="fill:white;stroke:black;stroke-width:127.84px;"/>
        </g>
    </g>
    <g transform="matrix(0.488889,0,0,0.488889,-427.93493,470.425)">
        <g transform="matrix(1,0,0,1,-304,-31)">
            <circle cx="2161.5" cy="710.5" r="112.5" style="fill:white;stroke:black;stroke-width:63.92px;"/>
        </g>
        <g transform="matrix(0.5,0,0,0.5,776.75,324.25)">
            <path d="M2274,710.5C2274,772.59 2223.59,823 2161.5,823" style="fill:white;stroke:black;stroke-width:127.84px;"/>
        </g>
    </g>
    <g transform="matrix(0.488889,0,0,0.488889,785.638889,-112.2)">
        <g transform="matrix(1,0,0,1,-304,-31)">
            <circle cx="2161.5" cy="710.5" r="112.5" style="fill:white;stroke:black;stroke-width:63.92px;"/>
        </g>
        <g transform="matrix(0.5,0,0,0.5,776.75,324.25)">
            <path d="M2274,710.5C2274,772.59 2223.59,823 2161.5,823" style="fill:white;stroke:black;stroke-width:127.84px;"/>
        </g>
    </g>
    <g transform="matrix(0.488889,0,0,0.488889,-372.93493,-112.2)">
        <g transform="matrix(1,0,0,1,-304,-31)">
            <circle cx="2161.5" cy="710.5" r="112.5" style="fill:white;stroke:black;stroke-width:63.92px;"/>
        </g>
        <g transform="matrix(0.5,0,0,0.5,776.75,324.25)">
            <path d="M2274,710.5C2274,772.59 2223.59,823 2161.5,823" style="fill:white;stroke:black;stroke-width:127.84px;"/>
        </g>
    </g>
    <g transform="matrix(0.488889,0,0,0.488889,86.06507,871.8)">
        <g transform="matrix(1,0,0,1,-304,-31)">
            <circle cx="2161.5" cy="710.5" r="112.5" style="fill:white;stroke:black;stroke-width:63.92px;"/>
        </g>
        <g transform="matrix(0.5,0,0,0.5,776.75,324.25)">
            <path d="M2274,710.5C2274,772.59 2223.59,823 2161.5,823" style="fill:white;stroke:black;stroke-width:127.84px;"/>
        </g>
    </g>
    <circle cx="128" cy="52" r="14" style="fill:rgb(214,214,214);"/>
    <g transform="matrix(1,0,0,1,296,221)">
        <circle cx="128" cy="52" r="14" style="fill:rgb(214,214,214);"/>
    </g>
    <circle cx="128" cy="52" r="14" style="fill:rgb(214,214,214);"/>
    <g transform="matrix(1,0,0,1,770,-14)">
        <circle cx="128" cy="52" r="14" style="fill:rgb(214,214,214);"/>
    </g>
    <g transform="matrix(1,0,0,1,118,594)">
        <circle cx="128" cy="52" r="14" style="fill:rgb(214,214,214);"/>
    </g>
    <g transform="matrix(1,0,0,1,594,924)">
        <circle cx="128" cy="52" r="14" style="fill:rgb(214,214,214);"/>
    </g>
    <g transform="matrix(1,0,0,1,1515,328)">
        <circle cx="128" cy="52" r="14" style="fill:rgb(214,214,214);"/>
    </g>
    <g transform="matrix(1,0,0,1,1659,1115.102362)">
        <circle cx="128" cy="52" r="14" style="fill:rgb(214,214,214);"/>
    </g>
    <g transform="matrix(1,0,0,1,933,896)">
        <circle cx="128" cy="52" r="14" style="fill:rgb(214,214,214);"/>
    </g>
    <g transform="matrix(1,0,0,1,340,1448)">
        <circle cx="128" cy="52" r="14" style="fill:rgb(214,214,214);"/>
    </g>
    <g transform="matrix(1,0,0,1,919,1849)">
        <circle cx="128" cy="52" r="14" style="fill:rgb(214,214,214);"/>
    </g>
    <g transform="matrix(1,0,0,1,961,1739)">
        <circle cx="128" cy="52" r="14" style="fill:rgb(214,214,214);"/>
    </g>
    <g transform="matrix(1,0,0,1,1290,1628)">
        <circle cx="128" cy="52" r="14" style="fill:rgb(214,214,214);"/>
    </g>
    <g transform="matrix(1,0,0,1,1658,1115.102362)">
        <circle cx="128" cy="52" r="14" style="fill:rgb(214,214,214);"/>
    </g>
    <g>
        <path d="M972,909L1061,809" style="fill:none;stroke:rgb(214,214,214);stroke-width:31.25px;"/>
        <g transform="matrix(0.796682,0.228447,0.228447,0.743318,-115.093395,89.273478)">
            <path d="M972,909L1061,809" style="fill:none;stroke:rgb(214,214,214);stroke-width:31.29px;"/>
        </g>
        <g transform="matrix(-0.193938,0.795641,-0.705941,0.293022,1697.148662,-208.371472)">
            <path d="M972,909L1061,809" style="fill:none;stroke:rgb(214,214,214);stroke-width:31.29px;"/>
        </g>
        <g transform="matrix(-0.193938,0.795641,-0.705941,0.293022,1820.041857,-52.719454)">
            <path d="M972,909L1061,809" style="fill:none;stroke:rgb(214,214,214);stroke-width:31.29px;"/>
        </g>
        <g transform="matrix(-0.817597,0.046813,-0.486366,-0.589629,2207.644288,1465.851043)">
            <path d="M972,909L1061,809" style="fill:none;stroke:rgb(214,214,214);stroke-width:31.29px;"/>
        </g>
    </g>
    <g transform="matrix(1,0,0,1,726,198.754941)">
        <path d="M972,909L1061,809" style="fill:none;stroke:rgb(214,214,214);stroke-width:31.25px;"/>
        <g transform="matrix(0.796682,0.228447,0.228447,0.743318,-115.093395,89.273478)">
            <path d="M972,909L1061,809" style="fill:none;stroke:rgb(214,214,214);stroke-width:31.29px;"/>
        </g>
        <g transform="matrix(-0.193938,0.795641,-0.705941,0.293022,1697.148662,-208.371472)">
            <path d="M972,909L1061,809" style="fill:none;stroke:rgb(214,214,214);stroke-width:31.29px;"/>
        </g>
        <g transform="matrix(-0.193938,0.795641,-0.705941,0.293022,1820.041857,-52.719454)">
            <path d="M972,909L1061,809" style="fill:none;stroke:rgb(214,214,214);stroke-width:31.29px;"/>
        </g>
        <g transform="matrix(-0.817597,0.046813,-0.486366,-0.589629,2207.644288,1465.851043)">
            <path d="M972,909L1061,809" style="fill:none;stroke:rgb(214,214,214);stroke-width:31.29px;"/>
        </g>
    </g>
    <g transform="matrix(1,0,0,1,366,750)">
        <path d="M972,909L1061,809" style="fill:none;stroke:rgb(214,214,214);stroke-width:31.25px;"/>
        <g transform="matrix(0.796682,0.228447,0.228447,0.743318,-115.093395,89.273478)">
            <path d="M972,909L1061,809" style="fill:none;stroke:rgb(214,214,214);stroke-width:31.29px;"/>
        </g>
        <g transform="matrix(-0.193938,0.795641,-0.705941,0.293022,1697.148662,-208.371472)">
            <path d="M972,909L1061,809" style="fill:none;stroke:rgb(214,214,214);stroke-width:31.29px;"/>
        </g>
        <g transform="matrix(-0.193938,0.795641,-0.705941,0.293022,1820.041857,-52.719454)">
            <path d="M972,909L1061,809" style="fill:none;stroke:rgb(214,214,214);stroke-width:31.29px;"/>
        </g>
        <g transform="matrix(-0.817597,0.046813,-0.486366,-0.589629,2207.644288,1465.851043)">
            <path d="M972,909L1061,809" style="fill:none;stroke:rgb(214,214,214);stroke-width:31.29px;"/>
        </g>
    </g>
    <g transform="matrix(1,0,0,1,-219,864.754941)">
        <path d="M972,909L1061,809" style="fill:none;stroke:rgb(214,214,214);stroke-width:31.25px;"/>
        <g transform="matrix(0.796682,0.228447,0.228447,0.743318,-115.093395,89.273478)">
            <path d="M972,909L1061,809" style="fill:none;stroke:rgb(214,214,214);stroke-width:31.29px;"/>
        </g>
        <g transform="matrix(-0.193938,0.795641,-0.705941,0.293022,1697.148662,-208.371472)">
            <path d="M972,909L1061,809" style="fill:none;stroke:rgb(214,214,214);stroke-width:31.29px;"/>
        </g>
        <g transform="matrix(-0.193938,0.795641,-0.705941,0.293022,1820.041857,-52.719454)">
            <path d="M972,909L1061,809" style="fill:none;stroke:rgb(214,214,214);stroke-width:31.29px;"/>
        </g>
        <g transform="matrix(-0.817597,0.046813,-0.486366,-0.589629,2207.644288,1465.851043)">
            <path d="M972,909L1061,809" style="fill:none;stroke:rgb(214,214,214);stroke-width:31.29px;"/>
        </g>
    </g>
    <g transform="matrix(1,0,0,1,-3,-2.875)">
        <circle cx="2161.5" cy="710.5" r="112.5" style="fill:white;stroke:black;stroke-width:31.25px;"/>
    </g>
    <g transform="matrix(0.5,0,0,0.5,1077.75,352.375)">
        <path d="M2274,710.5C2274,772.59 2223.59,823 2161.5,823" style="fill:white;stroke:black;stroke-width:62.5px;"/>
    </g>
    <g transform="matrix(1.857778,0,0,1.857778,-1403.572222,173.765)">
        <g transform="matrix(1,0,0,1,-304,-31)">
            <circle cx="2161.5" cy="710.5" r="112.5" style="fill:white;stroke:black;stroke-width:16.82px;"/>
        </g>
        <g transform="matrix(1,0,0,1,-304,-31)">
            <circle cx="2161.5" cy="710.5" r="112.5" style="fill:white;stroke:black;stroke-width:16.82px;"/>
        </g>
        <g transform="matrix(0.612303,0,0,0.612303,538.059825,244.458795)">
            <path d="M2274,710.5C2274,772.59 2223.59,823 2161.5,823" style="fill:white;stroke:black;stroke-width:27.47px;"/>
        </g>
        <g transform="matrix(-0.475527,0.385732,0.385732,0.475527,2614.459197,-492.110754)">
            <path d="M2274,710.5C2274,721.42 2272.441,731.978 2269.533,741.964" style="fill:white;stroke:black;stroke-width:27.47px;"/>
        </g>
    </g>
</svg>
